<svg width="680" height="684" viewBox="0 0 680 684" fill="none" xmlns="http://www.w3.org/2000/svg">
<mask id="mask0_119_243" style="mask-type:luminance" maskUnits="userSpaceOnUse" x="0" y="256" width="680" height="428">
<path d="M0 256.735H679.667V683.527H0V256.735Z" fill="white"/>
</mask>
<g mask="url(#mask0_119_243)">
<path d="M672.88 280.584C671.974 280.584 671.068 281.485 670.161 281.485C668.354 281.485 662.021 287.824 658.401 290.537C654.776 294.157 650.255 295.97 649.349 297.777C648.443 299.589 649.349 302.303 652.062 304.11C654.776 305.923 652.062 310.449 652.062 318.595C652.062 326.735 649.349 320.402 646.635 323.115C643.917 324.928 640.297 324.928 638.49 324.022C636.677 323.115 633.964 320.402 632.151 314.975C630.344 309.542 629.438 305.923 628.531 304.11C627.63 302.303 624.911 291.443 623.104 287.824C622.198 284.204 621.292 283.298 618.578 279.678C616.766 276.959 614.958 277.865 612.245 273.339C608.625 269.72 609.526 269.72 606.812 265.199C604.099 261.579 600.479 261.579 597.76 261.579C595.047 261.579 584.188 261.579 580.568 259.766C576.948 257.954 577.854 257.053 576.042 257.053C574.234 257.053 569.708 257.053 565.182 253.433C560.656 249.813 565.182 253.433 561.562 253.433C557.943 253.433 546.177 250.714 546.177 250.714C546.177 250.714 546.177 252.527 547.083 254.334C547.99 256.147 567.896 262.48 569.708 262.48C571.516 263.386 572.422 267.006 575.135 269.72C577.854 272.438 579.661 273.339 579.661 274.246C580.568 276.058 576.042 282.391 576.042 282.391C576.042 282.391 568.802 286.011 566.995 286.917C565.182 287.824 561.562 290.537 560.656 292.345C559.75 294.157 549.797 299.589 547.99 300.49C546.177 301.397 538.031 303.209 536.224 302.303C534.411 301.397 532.604 298.683 532.604 298.683C532.604 298.683 528.078 294.157 526.266 286.917C525.359 280.584 524.458 278.772 523.552 273.339C522.646 267.912 517.219 265.199 515.406 261.579C512.693 257.053 506.354 250.714 506.354 250.714C506.354 250.714 501.833 254.334 500.021 255.24C499.115 257.053 501.833 263.386 502.734 266.1C503.641 268.818 504.547 273.339 508.167 277.865C510.88 282.391 513.599 284.204 519.026 288.725C524.458 293.251 525.359 300.49 526.266 302.303C527.172 304.11 531.698 308.636 536.224 312.256C540.745 315.876 541.651 313.162 549.797 312.256C557.943 311.35 555.229 314.068 555.229 316.782C555.229 319.496 553.417 327.641 551.609 331.261C549.797 335.787 544.365 337.6 540.745 340.313C537.125 343.027 535.318 347.553 530.792 351.173C526.266 354.792 526.266 357.506 527.172 359.318C528.078 361.126 526.266 371.084 527.172 372.891C528.078 374.704 526.266 380.131 527.172 386.47C528.078 392.803 527.172 397.329 527.172 399.136C527.172 400.949 522.646 405.475 519.026 408.188C516.312 410.001 513.599 412.714 509.979 413.621C506.354 414.522 509.979 417.24 509.979 424.48C509.979 431.72 506.354 433.527 504.547 432.626C502.734 430.813 500.021 439.865 498.214 445.292C496.401 450.725 494.594 453.438 493.688 454.345C492.781 456.152 489.161 457.964 485.542 461.584C481.922 465.204 477.396 467.917 473.776 469.73C470.156 470.636 464.724 473.35 457.484 473.35C451.151 474.256 450.245 455.251 447.531 452.532C444.818 449.818 443.911 444.391 443.911 439.865C443.911 435.339 443.911 434.433 443.911 431.72C443.911 429.006 439.385 425.386 441.198 420.86C443.005 416.334 439.385 414.522 438.479 410.001C437.578 406.381 438.479 403.662 438.479 401.855C438.479 400.042 448.438 392.803 443.911 390.996C441.198 390.089 439.385 380.131 437.578 376.511C435.766 372.891 433.953 371.99 431.24 368.365C428.526 364.746 427.62 364.746 426.714 359.318C425.812 353.886 428.526 347.553 429.432 343.027C430.333 339.407 423.094 334.881 419.474 332.167C415.854 329.454 413.141 328.548 408.615 328.548C404.089 328.548 404.995 330.355 402.281 330.355C399.562 330.355 394.135 329.454 392.323 329.454C390.516 328.548 388.703 329.454 385.99 328.548C385.083 331.261 376.036 335.787 376.036 335.787C376.036 335.787 367.891 331.261 365.177 328.548C362.458 325.834 360.651 324.022 357.031 320.402C354.312 316.782 353.411 316.782 348.885 310.449C344.359 304.11 348.885 305.923 348.885 304.11C348.885 302.303 349.792 299.589 353.411 293.251C357.031 286.917 353.411 288.725 353.411 282.391C353.411 276.058 356.125 270.626 357.932 267.912C359.745 265.199 361.552 264.292 362.458 263.386C364.271 261.579 371.51 257.053 371.51 257.053C371.51 257.053 370.604 252.527 371.51 248.907C372.417 245.287 375.13 244.381 376.036 241.667C376.938 239.855 383.276 235.329 386.896 232.615C390.516 228.996 391.422 231.709 395.943 231.709C399.562 231.709 395.943 231.709 400.469 231.709C404.995 231.709 406.807 231.709 406.807 231.709C406.807 231.709 410.427 230.808 415.854 229.902C421.286 228.996 420.38 228.089 424 225.376C427.62 222.662 431.24 225.376 433.052 225.376C434.859 225.376 436.672 228.996 436.672 228.996C436.672 228.996 438.479 235.329 440.292 237.141C442.099 238.949 444.818 238.949 446.625 239.855C448.438 240.761 451.151 242.574 454.771 243.475C458.391 244.381 462.917 242.574 462.917 242.574C462.917 242.574 462.917 242.574 465.63 241.667C468.344 240.761 471.964 242.574 471.964 242.574C471.964 242.574 475.589 244.381 478.302 246.193C481.016 247.094 484.635 246.193 486.448 246.193C488.255 246.193 490.068 245.287 493.688 245.287C497.307 245.287 499.115 244.381 499.115 244.381C499.115 244.381 501.833 241.667 503.641 239.855C505.453 238.048 504.547 237.141 508.167 230.808C511.786 224.469 508.167 230.808 509.979 228.996C511.786 227.188 509.979 226.282 509.073 224.469C508.167 222.662 502.734 222.662 499.115 221.756C495.495 220.85 499.115 221.756 495.495 220.85C491.875 219.943 490.068 219.943 490.068 219.943C490.068 219.943 485.542 219.042 481.922 218.136C478.302 216.324 481.922 218.136 481.016 216.324C480.109 214.516 480.109 213.61 480.109 213.61L475.589 210.897C475.589 210.897 473.776 213.61 473.776 215.423C473.776 217.23 475.589 221.756 475.589 221.756L469.25 223.568C469.25 223.568 466.536 221.756 465.63 219.943C464.724 218.136 466.536 216.324 462.917 212.704C459.297 209.084 462.917 212.704 460.203 210.897C457.484 209.084 459.297 207.277 459.297 206.371C459.297 205.464 457.484 202.751 457.484 202.751C457.484 202.751 452.958 200.938 450.245 199.131C448.438 197.318 447.531 195.511 444.818 192.798C441.198 188.272 441.198 190.985 439.385 190.985H438.479C438.479 190.985 438.479 191.891 439.385 191.891C440.292 192.798 440.292 193.699 441.198 194.605C442.099 195.511 443.005 198.225 443.005 199.131C443.911 200.037 444.818 200.037 446.625 200.938C448.438 201.844 448.438 202.751 449.339 203.657C450.245 204.558 451.151 205.464 452.057 206.371C452.958 207.277 454.771 207.277 456.583 208.183C458.391 209.084 456.583 211.803 456.583 210.897C456.583 210.897 455.677 209.99 453.865 209.99C452.057 209.99 452.958 211.803 453.865 211.803C454.771 211.803 455.677 213.61 455.677 214.516C455.677 214.516 454.771 217.23 453.865 218.136C452.958 219.042 452.958 219.042 452.057 219.943C451.151 220.85 451.151 220.85 450.245 220.85C450.245 220.85 449.339 222.662 449.339 223.568C449.339 224.469 447.531 225.376 446.625 225.376C445.719 225.376 444.818 224.469 444.818 223.568C443.911 222.662 443.005 223.568 442.099 222.662C441.198 221.756 440.292 220.85 441.198 219.943C442.099 219.042 443.005 219.943 444.818 219.943C446.625 219.042 446.625 220.85 448.438 219.943C450.245 219.042 451.151 218.136 451.151 218.136C451.151 218.136 448.438 211.803 447.531 210.897C446.625 209.99 444.818 209.084 443.911 208.183C443.005 207.277 441.198 207.277 439.385 205.464C437.578 203.657 437.578 204.563 436.672 202.751C435.766 200.938 435.766 201.844 434.859 200.938C433.953 200.037 433.052 198.225 433.052 197.318C432.146 196.417 432.146 196.417 431.24 195.511C430.333 195.511 430.333 195.511 430.333 195.511C430.333 195.511 430.333 195.511 428.526 196.417C426.714 197.318 425.812 200.037 422.193 203.657C418.568 207.277 417.667 207.277 416.76 205.464C414.948 203.657 411.328 209.084 411.328 209.084L409.521 215.423C409.521 215.423 405.901 219.042 403.188 219.943C400.469 220.85 400.469 223.568 399.562 224.469C398.661 226.282 393.229 226.282 390.516 226.282C387.802 226.282 386.896 224.469 384.182 221.756C381.464 219.042 384.182 221.756 382.37 221.756C380.557 221.756 377.844 217.23 377.844 217.23C377.844 217.23 377.844 217.23 380.557 215.423C383.276 213.61 380.557 211.803 380.557 211.803L382.37 208.183C382.37 208.183 378.75 204.558 382.37 197.318C385.99 190.985 382.37 197.318 388.703 192.798C395.042 188.272 388.703 192.798 395.943 193.699C403.188 194.605 401.375 193.699 401.375 193.699C401.375 193.699 401.375 193.699 400.469 190.079C399.562 186.459 400.469 187.365 399.562 183.746C398.661 180.126 399.562 183.746 397.755 182.839C395.943 181.933 394.135 178.313 395.042 176.506C395.943 174.693 399.562 175.6 399.562 175.6C399.562 175.6 408.615 172.886 414.047 168.36C418.568 163.834 414.047 168.36 416.76 165.647C419.474 162.928 419.474 161.121 419.474 159.308C419.474 158.407 427.62 156.594 427.62 156.594C427.62 156.594 428.526 153.881 428.526 152.068C428.526 150.261 429.432 146.641 429.432 146.641C429.432 146.641 432.146 148.449 433.953 149.355C435.766 150.261 434.859 155.688 434.859 155.688C434.859 155.688 437.573 156.594 439.385 156.594C441.198 156.594 443.005 158.407 445.719 158.407C448.438 158.407 449.339 159.308 453.865 159.308C457.484 159.308 460.203 156.594 460.203 156.594C460.203 156.594 461.104 152.068 462.01 148.449C462.917 144.829 462.917 144.829 463.823 142.115C464.724 139.402 468.344 137.589 467.443 134.876C466.536 132.162 463.823 131.256 463.823 125.824C462.917 120.397 463.823 125.824 467.443 124.016C471.062 122.204 467.443 120.397 467.443 120.397C467.443 120.397 467.443 120.397 465.63 120.397C463.823 120.397 457.484 123.11 456.583 124.016C454.771 124.917 451.151 130.35 451.151 130.35C451.151 130.35 453.865 132.162 457.484 133.969C461.104 135.782 456.583 138.496 455.677 140.303C453.865 142.115 452.057 142.115 451.151 143.923C450.245 145.735 449.339 147.542 447.531 149.355C445.719 151.167 443.911 150.261 442.099 147.542C440.292 144.829 442.099 142.115 442.099 139.402C442.099 136.683 437.578 136.683 435.766 137.589C433.953 138.496 429.432 141.209 427.62 141.209C425.812 141.209 423.094 141.209 420.38 139.402C417.667 137.589 418.568 135.782 420.38 131.256C422.193 126.73 424.906 127.636 431.24 124.917C437.578 122.204 433.953 121.298 435.766 117.678C437.578 114.058 436.672 114.964 440.292 111.344C443.911 107.725 443.911 107.725 452.057 105.912C460.203 104.105 462.917 105.011 463.823 104.105C465.63 102.292 470.156 102.292 471.964 102.292C473.776 102.292 478.302 105.912 481.016 107.725C483.729 109.532 487.349 108.631 498.214 106.818C509.073 105.011 503.641 110.438 511.786 110.438C519.932 110.438 526.266 109.532 528.078 108.631C529.885 107.725 535.318 106.818 541.651 105.011C547.99 103.199 546.177 104.105 549.797 103.199C553.417 102.292 553.417 98.6726 555.229 95.0528C557.036 91.433 564.276 95.9591 569.708 99.5789C573.328 102.292 574.234 101.391 574.234 99.5789C513.599 40.7507 430.333 4.55283 338.927 4.55283C246.62 4.55283 162.453 41.657 100.911 102.292C105.438 102.292 106.339 104.105 106.339 104.105C106.339 104.105 118.104 103.199 119.917 102.292C120.823 101.391 122.63 102.292 126.25 101.391C128.969 101.391 129.87 102.292 135.302 103.199C140.729 104.105 138.016 104.105 139.828 104.105C141.635 104.105 141.635 105.011 144.349 105.011C147.068 105.011 147.068 105.912 149.781 106.818C148.875 105.912 150.688 105.011 150.688 104.105C150.688 102.292 150.688 102.292 151.594 101.391C152.495 100.485 153.401 99.5789 154.307 98.6726C155.214 97.7716 154.307 97.7716 153.401 95.9591C152.495 94.1466 149.781 96.8653 148.875 96.8653C147.974 96.8653 144.349 98.6726 144.349 98.6726C144.349 98.6726 141.635 97.7716 140.729 96.8653C139.828 95.9591 139.828 95.0528 138.922 94.1466C138.016 93.2455 139.828 94.1466 142.542 93.2455C145.255 92.3393 145.255 91.433 146.161 90.5268C147.068 89.6257 147.068 89.6257 149.781 87.8132C152.495 86.006 151.594 86.907 154.307 86.907C157.021 86.907 156.115 87.8132 158.833 87.8132C161.547 87.8132 162.453 89.6257 163.359 89.6257C166.073 88.7195 167.88 92.3393 168.786 92.3393C169.693 92.3393 169.693 93.2455 171.5 93.2455C173.312 93.2455 174.219 93.2455 176.026 93.2455C177.839 93.2455 180.552 92.3393 181.458 91.433C182.365 90.5268 186.885 90.5268 186.885 90.5268L185.078 93.2455C185.078 93.2455 183.266 95.9591 183.266 97.7716C183.266 98.6726 184.172 99.5789 185.078 101.391C185.984 103.199 184.172 103.199 183.266 103.199C182.365 103.199 182.365 105.011 182.365 105.912C182.365 106.818 180.552 105.912 179.646 105.912C178.74 105.912 177.839 105.912 176.026 105.912C174.219 105.912 176.026 107.725 176.026 108.631C176.932 108.631 177.839 108.631 178.74 108.631C183.266 108.631 183.266 109.532 187.792 109.532C192.318 109.532 191.411 108.631 196.844 106.818C202.271 105.011 196.844 105.912 197.745 105.011C198.651 104.105 197.745 104.105 198.651 102.292C199.557 100.485 197.745 100.485 197.745 99.5789C197.745 98.6726 199.557 97.7716 200.464 97.7716C201.37 97.7716 203.177 95.0528 205.891 93.2455C208.609 91.433 205.891 93.2455 205.891 92.3393C205.891 91.433 204.99 91.433 205.891 89.6257C206.797 88.7195 206.797 89.6257 210.417 88.7195C214.036 87.8132 214.036 86.006 216.75 87.8132C218.562 88.7195 219.469 89.6257 219.469 90.5268C221.276 89.6257 222.182 88.7195 223.089 88.7195C224.896 88.7195 225.802 89.6257 225.802 88.7195C226.708 87.8132 229.422 89.6257 231.234 89.6257C233.042 89.6257 233.042 89.6257 234.854 89.6257C235.755 89.6257 239.38 88.7195 242.094 88.7195C244.807 88.7195 244.807 89.6257 246.62 90.5268C248.427 91.433 248.427 92.3393 248.427 92.3393L250.24 94.1466C250.24 95.0528 252.047 95.0528 253.859 95.9591C255.667 96.8653 255.667 98.6726 255.667 98.6726L254.766 102.292L259.286 104.105C259.286 104.105 261.099 106.818 262.005 106.818L263.812 108.631L265.625 111.344L264.719 113.157H253.859C252.953 113.157 253.859 122.204 252.047 122.204C250.24 122.204 251.141 122.204 249.333 121.298C247.521 120.397 249.333 125.824 249.333 126.73C249.333 127.636 248.427 131.256 246.62 131.256C245.714 130.35 241.188 129.443 240.281 129.443C238.474 129.443 236.661 126.73 235.755 124.917C234.854 123.11 232.135 124.016 231.234 124.016C230.328 124.016 224.896 121.298 225.802 120.397C226.708 119.49 226.708 120.397 230.328 118.584C233.948 116.777 237.568 114.964 239.38 113.157C241.188 111.344 241.188 110.438 241.188 109.532C241.188 108.631 239.38 106.818 238.474 105.011C237.568 103.199 233.948 103.199 233.042 103.199C232.135 103.199 231.234 103.199 228.516 105.011C225.802 106.818 226.708 106.818 226.708 106.818L224.896 110.438C224.896 111.344 223.089 112.251 221.276 114.058C219.469 114.964 219.469 114.964 217.656 115.871C215.849 116.777 216.75 118.584 216.75 118.584C216.75 118.584 217.656 122.204 217.656 123.11C218.562 124.917 215.849 124.016 214.943 123.11C214.036 122.204 213.13 122.204 211.323 122.204C209.51 122.204 209.51 124.016 208.609 124.016C207.703 124.016 206.797 123.11 206.797 122.204C206.797 121.298 208.609 120.397 208.609 119.49C208.609 118.584 209.51 118.584 210.417 117.678C211.323 116.777 212.229 114.964 211.323 114.058C210.417 113.157 210.417 113.157 209.51 112.251C208.609 111.344 210.417 110.438 212.229 109.532C214.036 108.631 212.229 109.532 214.036 108.631C215.849 107.725 216.75 104.105 215.849 103.199C214.036 102.292 214.943 102.292 214.943 101.391C214.943 100.485 214.036 100.485 214.036 99.5789C214.036 99.5789 214.036 98.6726 214.036 97.7716C211.323 98.6726 209.51 98.6726 208.609 99.5789C208.609 100.485 207.703 104.105 207.703 104.105C207.703 104.105 204.083 109.532 203.177 112.251C204.083 114.964 208.609 118.584 208.609 118.584C208.609 118.584 198.651 122.204 197.745 122.204C196.844 122.204 186.885 126.73 181.458 128.537C175.12 130.35 174.219 136.683 172.406 138.496C170.599 140.303 180.552 151.167 185.078 152.068C189.604 152.975 198.651 158.407 199.557 156.594C201.37 154.787 206.797 152.068 208.609 151.167C211.323 150.261 213.13 141.209 216.75 135.782C220.375 130.35 220.375 130.35 223.089 130.35C225.802 130.35 225.802 127.636 229.422 127.636C233.042 127.636 232.135 129.443 232.135 129.443C232.135 129.443 233.948 133.969 236.661 139.402C239.38 144.829 239.38 140.303 243 137.589C247.521 134.876 246.62 133.969 251.141 133.063C255.667 132.162 253.859 146.641 253.859 146.641C253.859 146.641 254.766 153.881 256.573 160.214C257.479 166.548 253.859 165.647 252.953 167.454C252.047 168.36 254.766 172.886 256.573 174.693C257.479 175.6 258.385 181.933 258.385 182.839C258.385 183.746 254.766 185.553 252.047 184.652C248.427 183.746 247.521 182.839 247.521 180.126C247.521 177.412 243 173.792 241.188 172.886C239.38 171.98 234.854 172.886 233.042 174.693C231.234 176.506 230.328 182.839 233.042 184.652C235.755 186.459 235.755 190.079 235.755 190.079C235.755 190.079 226.708 192.798 223.995 192.798C220.375 192.798 217.656 194.605 215.849 196.417C214.036 198.225 212.229 202.751 210.417 204.563C208.609 206.371 201.37 208.183 200.464 208.183C199.557 208.183 190.505 219.042 190.505 219.943C190.505 221.756 188.698 228.089 188.698 228.089C188.698 228.089 178.74 232.615 176.026 234.428C173.312 236.235 170.599 242.574 169.693 243.475C168.786 243.475 166.073 250.714 166.073 251.621C166.073 252.527 166.073 259.766 166.073 263.386C166.073 267.006 162.453 264.292 160.641 261.579C158.833 258.86 160.641 257.053 160.641 254.334C160.641 251.621 158.833 250.714 156.115 248.907C153.401 247.094 146.161 249.813 143.448 248.907C140.729 248.001 138.016 248.907 133.49 248.907C128.969 248.907 124.443 250.714 121.724 251.621C119.01 251.621 112.677 259.766 111.771 262.48C110.865 266.1 109.057 272.438 109.057 272.438C109.057 272.438 111.771 283.298 113.583 285.105C114.484 286.917 118.104 287.824 121.724 286.917C125.344 286.917 126.25 286.011 128.969 285.105C131.682 284.204 133.49 280.584 136.208 280.584C138.922 280.584 138.016 281.485 139.828 281.485C141.635 281.485 137.109 291.443 136.208 292.345C135.302 293.251 134.396 297.777 135.302 297.777C136.208 297.777 138.922 297.777 140.729 297.777C143.448 297.777 147.068 300.49 148.875 301.397C150.688 302.303 147.974 308.636 147.974 309.542C147.974 310.449 148.875 314.068 151.594 315.876C154.307 316.782 157.021 322.214 157.021 322.214C157.021 322.214 149.781 324.928 147.974 322.214C147.068 319.496 143.448 317.688 142.542 314.975C140.729 311.35 138.922 314.068 137.109 312.256C134.396 310.449 126.25 305.923 126.25 305.923C126.25 305.923 122.63 302.303 119.917 301.397C117.203 300.49 114.484 301.397 114.484 301.397C114.484 301.397 104.531 301.397 101.818 299.589C99.099 297.777 96.3854 296.871 92.7656 294.157C89.1458 291.443 86.4323 289.631 86.4323 285.105C86.4323 280.584 86.4323 277.865 86.4323 277.865C86.4323 277.865 84.6198 276.058 83.7135 274.246C82.8125 272.438 81.9062 270.626 81 269.72C81 268.818 79.1927 266.1 77.3802 264.292C75.5729 262.48 75.5729 260.673 75.5729 260.673C75.5729 260.673 69.2344 254.334 68.3281 254.334C67.4271 254.334 67.4271 256.147 67.4271 256.147C67.4271 256.147 67.4271 260.673 67.4271 262.48C67.4271 263.386 68.3281 267.912 69.2344 268.818C70.1406 269.72 71.9531 274.246 71.0469 275.152C70.1406 276.058 68.3281 276.964 66.5208 275.152C64.7083 273.339 62.901 271.532 60.1875 267.006C56.5677 262.48 58.375 262.48 58.375 253.433C58.375 244.381 57.4688 244.381 57.4688 240.761C57.4688 237.141 55.6615 236.235 52.9427 231.709C50.2292 227.188 50.2292 220.85 50.2292 216.324C51.1354 211.803 58.375 202.751 60.1875 200.037C61.9948 197.318 63.8073 194.605 63.8073 192.798C63.8073 191.891 63.8073 178.313 65.6146 173.792C67.4271 169.266 66.5208 170.173 68.3281 166.548C70.1406 162.928 67.4271 160.214 67.4271 160.214C67.4271 160.214 60.1875 162.928 58.375 162.027C56.5677 161.121 58.375 158.407 60.1875 153.881C61.0885 152.068 61.9948 151.167 61.0885 149.355C23.0781 205.464 0.453125 272.438 0.453125 344.839C0.453125 532.173 152.495 684.22 339.833 684.22C527.172 684.22 679.214 532.173 679.214 344.839C679.214 323.115 677.406 301.397 672.88 280.584ZM392.323 149.355C392.323 148.449 391.422 148.449 391.422 148.449C391.422 148.449 388.703 146.641 389.609 146.641L391.422 145.735H393.229L395.042 144.829C395.042 144.829 397.755 142.115 397.755 143.022C397.755 143.022 401.375 142.115 401.375 143.022C401.375 144.829 400.469 144.829 400.469 145.735C400.469 146.641 400.469 145.735 402.281 145.735C404.089 145.735 403.188 145.735 403.188 146.641C403.188 147.542 401.375 148.449 401.375 148.449C400.469 148.449 402.281 151.167 402.281 151.167L403.188 154.787C403.188 154.787 404.089 155.688 404.995 156.594C405.901 157.501 408.615 159.308 408.615 160.214C408.615 161.121 410.427 162.027 411.328 162.027C412.234 162.027 413.141 163.834 413.141 164.74C413.141 165.647 412.234 166.548 411.328 166.548C410.427 166.548 409.521 168.36 408.615 169.266C407.708 170.173 406.807 170.173 406.807 170.173C405.901 170.173 405.901 171.074 404.995 171.074C404.089 171.074 402.281 171.074 401.375 171.074C399.562 171.074 401.375 171.074 400.469 171.074C399.562 171.074 398.661 171.98 398.661 171.98C398.661 171.98 396.849 173.792 395.943 173.792C395.042 173.792 393.229 174.693 394.135 173.792C395.042 172.886 395.943 172.886 396.849 171.074C397.755 169.266 398.661 170.173 398.661 169.266C398.661 169.266 398.661 168.36 397.755 167.454C396.849 166.548 395.943 167.454 395.943 167.454C395.943 167.454 394.135 166.548 395.042 165.647C395.943 164.74 395.042 165.647 396.849 165.647C398.661 165.647 396.849 165.647 396.849 164.74C396.849 163.834 395.943 163.834 396.849 162.027C397.755 161.121 396.849 162.027 397.755 162.027C398.661 162.027 399.562 161.121 399.562 160.214C399.562 159.308 399.562 159.308 399.562 158.407C399.562 157.501 399.562 157.501 398.661 155.688C397.755 153.881 398.661 155.688 397.755 154.787C396.849 153.881 395.943 154.787 395.042 154.787C394.135 154.787 394.135 155.688 394.135 155.688C394.135 155.688 393.229 156.594 393.229 157.501C393.229 158.407 392.323 158.407 392.323 159.308C392.323 160.214 391.422 161.121 391.422 161.121C391.422 161.121 391.422 162.928 391.422 163.834C391.422 164.74 390.516 165.647 390.516 165.647C390.516 165.647 388.703 166.548 387.802 166.548C386.896 166.548 385.99 167.454 385.083 167.454C384.182 167.454 383.276 168.36 383.276 168.36C383.276 168.36 381.464 169.266 380.557 168.36C379.656 167.454 379.656 167.454 379.656 166.548C379.656 165.647 379.656 165.647 381.464 164.74C383.276 163.834 382.37 162.928 382.37 162.928C382.37 162.928 381.464 162.027 381.464 161.121C381.464 160.214 382.37 159.308 383.276 158.407C384.182 157.501 385.083 158.407 385.99 158.407C386.896 158.407 385.99 158.407 385.99 157.501C385.99 156.594 385.99 156.594 385.99 156.594C385.99 156.594 385.99 155.688 386.896 154.787C387.802 153.881 388.703 154.787 388.703 154.787L392.323 153.881C392.323 153.881 392.323 152.975 393.229 152.068C393.229 151.167 393.229 152.068 393.229 151.167C393.229 150.261 392.323 150.261 392.323 149.355ZM221.276 77.8601C222.182 76.9539 222.182 76.9539 222.182 76.0476C223.089 75.1414 223.995 76.0476 224.896 76.9539C226.708 77.8601 224.896 78.7664 224.896 80.5737C224.896 82.3862 223.995 80.5737 223.089 80.5737C222.182 80.5737 221.276 80.5737 220.375 80.5737C219.469 80.5737 218.562 79.6674 218.562 79.6674C218.562 79.6674 220.375 77.8601 221.276 77.8601ZM210.417 76.0476C211.323 75.1414 213.13 75.1414 215.849 76.0476L216.75 77.8601L215.849 79.6674C215.849 79.6674 214.943 79.6674 214.036 79.6674C213.13 79.6674 211.323 79.6674 210.417 78.7664C209.51 77.8601 208.609 76.0476 210.417 76.0476ZM186.885 88.7195C185.078 88.7195 183.266 88.7195 181.458 89.6257C179.646 90.5268 176.026 90.5268 174.219 90.5268C172.406 90.5268 171.5 89.6257 171.5 89.6257L167.88 87.8132C167.88 87.8132 164.26 86.907 163.359 86.907C161.547 86.907 161.547 86.006 161.547 85.0997C161.547 84.1935 163.359 85.0997 165.167 84.1935C166.979 84.1935 166.979 84.1935 167.88 83.2872C168.786 82.3862 170.599 82.3862 172.406 80.5737C174.219 78.7664 173.312 80.5737 175.12 79.6674C176.932 78.7664 178.74 79.6674 179.646 79.6674C181.458 79.6674 180.552 79.6674 181.458 80.5737C182.365 81.4799 181.458 82.3862 181.458 82.3862C181.458 82.3862 181.458 83.2872 185.078 84.1935C185.078 84.1935 187.792 84.1935 189.604 83.2872C191.411 82.3862 190.505 82.3862 192.318 81.4799C194.125 80.5737 195.031 83.2872 195.938 84.1935C195.938 85.0997 195.938 86.006 195.031 86.006C195.031 86.006 193.224 86.907 192.318 87.8132C189.604 88.7195 187.792 88.7195 186.885 88.7195ZM203.177 95.9591C203.177 96.8653 200.464 97.7716 200.464 97.7716C200.464 97.7716 191.411 98.6726 191.411 97.7716C190.505 96.8653 191.411 95.0528 191.411 94.1466C191.411 93.2455 192.318 94.1466 194.125 94.1466C195.938 94.1466 194.125 93.2455 194.125 92.3393C194.125 91.433 198.651 91.433 203.177 91.433C205.891 91.433 203.177 95.9591 203.177 95.9591ZM215.849 88.7195C214.943 88.7195 214.036 88.7195 212.229 87.8132C210.417 87.8132 210.417 86.907 209.51 86.907C208.609 86.907 207.703 88.7195 206.797 88.7195C205.891 88.7195 204.083 88.7195 203.177 88.7195C202.271 88.7195 201.37 87.8132 200.464 86.907C199.557 86.006 198.651 84.1935 198.651 83.2872C198.651 82.3862 199.557 83.2872 200.464 83.2872C201.37 83.2872 202.271 83.2872 204.083 82.3862C205.891 82.3862 205.891 82.3862 207.703 82.3862C207.703 82.3862 208.609 82.3862 209.51 81.4799C210.417 80.5737 211.323 81.4799 212.229 81.4799C213.13 81.4799 213.13 82.3862 213.13 84.1935C213.13 86.006 213.13 84.1935 215.849 84.1935C218.562 84.1935 217.656 85.0997 218.562 86.907C218.562 88.7195 216.75 88.7195 215.849 88.7195ZM244.807 88.7195C243.901 88.7195 243 89.6257 242.094 89.6257C241.188 89.6257 239.38 90.5268 238.474 90.5268C237.568 90.5268 233.948 90.5268 233.042 90.5268C232.135 90.5268 230.328 89.6257 228.516 89.6257C226.708 89.6257 225.802 89.6257 224.896 88.7195C223.995 88.7195 221.276 88.7195 220.375 87.8132C219.469 86.907 220.375 86.907 221.276 86.006C222.182 85.0997 221.276 86.006 222.182 85.0997C223.089 84.1935 222.182 84.1935 221.276 84.1935C220.375 84.1935 217.656 83.2872 217.656 83.2872C217.656 83.2872 217.656 82.3862 219.469 82.3862C221.276 82.3862 223.089 83.2872 223.995 83.2872C224.896 84.1935 224.896 84.1935 225.802 84.1935C226.708 85.0997 226.708 85.0997 227.615 85.0997C228.516 85.0997 230.328 85.0997 231.234 85.0997C233.042 85.0997 233.042 85.0997 234.854 85.0997C236.661 85.0997 237.568 85.0997 241.188 85.0997C244.807 85.0997 244.807 86.006 245.714 86.907C247.521 87.8132 245.714 88.7195 244.807 88.7195ZM285.531 390.996L281.01 400.949C281.01 400.949 281.01 404.568 281.01 412.714C281.01 420.86 279.198 420.86 278.292 427.193C277.391 434.433 269.245 435.339 269.245 435.339C269.245 435.339 263.812 438.959 261.099 439.865C258.385 440.766 261.099 441.673 261.099 441.673C261.099 441.673 258.385 447.105 257.479 448.912C256.573 450.725 257.479 452.532 257.479 452.532C257.479 452.532 254.76 460.678 253.859 462.49C252.953 464.298 249.333 471.537 249.333 471.537L243 474.256C243 474.256 241.188 479.683 238.474 481.496C236.661 483.303 238.474 487.829 238.474 487.829L234.854 488.735C234.854 488.735 230.328 493.261 228.516 494.162C226.708 495.068 224.896 496.881 224.896 496.881C224.896 496.881 224.896 505.928 224.896 508.647C224.896 511.36 223.995 521.313 223.995 523.126C223.995 524.933 225.802 528.553 225.802 528.553C225.802 528.553 233.948 538.511 234.854 541.225C236.661 543.938 222.182 543.037 219.469 541.225C216.75 539.417 214.943 537.605 211.323 533.985C207.703 530.365 196.844 512.266 195.031 507.74C194.125 503.214 195.938 497.787 195.031 496.881C194.125 495.975 195.031 488.735 195.031 486.022C195.031 483.303 190.505 477.876 188.698 470.636C186.885 462.49 190.505 465.204 188.698 459.772C186.885 455.251 189.604 454.345 187.792 450.725C185.984 447.105 190.505 432.626 187.792 426.287C185.078 419.954 188.698 422.667 187.792 420.86C186.885 419.048 184.172 415.428 183.266 413.621C182.365 411.808 176.026 409.095 174.219 406.381C172.406 404.568 170.599 402.756 168.786 400.949C166.979 399.136 160.641 397.329 157.021 392.803C153.401 388.277 155.214 385.563 157.927 378.324C160.641 371.084 156.115 375.61 153.401 370.178C149.781 364.746 151.594 366.558 153.401 362.032C155.214 357.506 156.115 355.699 157.927 352.079C159.734 348.459 157.927 352.079 161.547 348.459C165.167 344.839 161.547 344.839 161.547 343.933C161.547 342.121 161.547 339.407 163.354 333.98C165.167 329.454 162.453 329.454 163.354 326.735C164.26 324.022 164.26 324.928 166.979 321.308C169.693 317.688 166.979 321.308 168.786 317.688C170.599 314.068 168.786 317.688 172.406 315.876C176.026 314.068 172.406 314.068 172.406 314.068C176.026 310.449 176.932 312.256 188.698 309.542C200.464 306.829 193.224 309.542 196.844 309.542C200.464 309.542 201.37 311.35 208.609 314.068C215.849 316.782 213.13 316.782 213.13 316.782C213.13 316.782 216.75 321.308 220.375 324.022C223.995 326.735 224.896 325.834 230.328 329.454C236.661 333.074 230.328 329.454 234.854 332.167C239.38 334.881 243 340.313 243.901 343.027C245.714 345.74 252.047 350.266 254.76 352.079C257.479 353.886 261.099 356.605 265.625 355.699C270.146 353.886 270.146 358.412 274.672 360.225C279.198 362.032 277.391 362.032 281.911 363.845C286.438 365.652 283.724 366.558 288.25 370.178C293.677 374.704 285.531 390.996 285.531 390.996ZM332.594 116.777C326.26 119.49 327.161 118.584 325.354 119.49C323.542 120.397 316.302 123.11 313.589 124.016C309.969 124.917 309.062 128.537 309.062 130.35C309.062 132.162 303.635 137.589 301.823 135.782C300.016 133.969 293.677 136.683 291.87 135.782C290.057 134.876 289.151 130.35 285.531 125.824C281.911 121.298 284.63 121.298 285.531 116.777C286.438 112.251 287.344 110.438 288.25 106.818C289.151 103.199 290.057 103.199 292.776 100.485C295.49 96.8653 294.583 96.8653 294.583 94.1466C294.583 91.433 290.057 90.5268 288.25 89.6257C286.438 88.7195 277.391 87.8132 272.865 84.1935C268.339 80.5737 270.146 80.5737 270.146 80.5737C270.146 80.5737 272.865 79.6674 276.484 77.8601C271.958 76.0476 273.771 77.8601 270.146 76.0476C266.526 74.2403 263.812 79.6674 259.286 80.5737C255.667 82.3862 254.766 83.2872 252.953 85.0997C251.141 86.907 249.333 85.0997 249.333 85.0997C249.333 85.0997 246.62 85.0997 244.807 85.0997C243 85.0997 232.135 85.0997 226.708 83.2872C221.276 81.4799 229.422 82.3862 230.328 80.5737C231.234 78.7664 235.755 80.5737 241.188 80.5737C246.62 80.5737 243 79.6674 241.188 78.7664C239.38 77.8601 235.76 78.7664 232.135 76.0476C228.516 73.3341 229.422 75.1414 232.135 73.3341C234.854 71.5216 238.474 72.4278 242.094 70.6205C245.714 69.7143 246.62 70.6205 252.047 70.6205C257.479 70.6205 255.667 68.808 258.385 67.9018C261.099 67.0007 262.906 67.9018 267.432 67.9018C271.958 67.9018 271.958 67.9018 273.771 67.9018C275.578 67.9018 278.292 67.9018 281.911 67.9018C285.531 67.9018 286.438 67.0007 290.964 65.1882C295.49 63.381 294.583 66.0945 298.203 68.808C299.109 68.808 300.917 68.808 302.729 67.9018C310.875 67.0007 311.781 68.808 316.302 69.7143C320.828 70.6205 324.448 68.808 328.068 66.0945C330.786 63.381 335.307 65.1882 346.172 66.0945C347.073 66.0945 347.979 66.0945 348.885 66.0945C351.599 66.0945 374.224 66.0945 377.844 65.1882C381.464 64.282 383.276 65.1882 386.896 65.1882C390.516 65.1882 387.802 71.5216 384.182 71.5216C380.557 71.5216 377.844 74.2403 376.036 77.8601C374.224 81.4799 371.51 84.1935 367.891 86.006C364.271 87.8132 363.365 93.2455 362.458 95.0528C361.552 96.8653 359.745 103.199 357.932 104.105C356.125 105.011 350.693 106.818 347.979 107.725C344.359 109.532 338.026 114.058 332.594 116.777Z" fill="#042036"/>
</g>
<path d="M104.007 88.1971C102.809 89.7804 102.059 91.0252 101.757 91.9263C101.45 92.8325 101.569 93.7284 102.111 94.6138C102.663 95.5044 103.799 96.6711 105.507 98.1138L138.757 126.405C140.45 127.853 141.778 128.775 142.736 129.176C143.705 129.583 144.621 129.551 145.486 129.093C146.345 128.624 147.444 127.687 148.778 126.28L150.132 127.426C147.908 129.775 144.861 133.228 140.986 137.78C136.913 142.562 133.976 146.15 132.174 148.551L130.819 147.405C132.095 145.728 132.913 144.4 133.278 143.426C133.637 142.458 133.554 141.52 133.028 140.614C132.496 139.697 131.387 138.52 129.694 137.072L94.611 107.239L123.111 159.343L122.194 160.405L63.611 141.78L95.736 169.093C98.3766 171.333 100.424 172.838 101.882 173.614C103.34 174.395 104.726 174.572 106.049 174.155C107.366 173.728 108.991 172.609 110.924 170.801L112.278 171.947C110.653 173.572 108.528 175.937 105.903 179.03C103.804 181.478 102.22 183.468 101.153 185.01L99.7985 183.864C100.825 182.197 101.366 180.796 101.424 179.655C101.476 178.52 101.028 177.333 100.069 176.093C99.1266 174.843 97.5173 173.254 95.236 171.322L65.0693 145.655C63.361 144.213 62.0277 143.296 61.0693 142.905C60.1006 142.504 59.1891 142.53 58.3402 142.989C57.4808 143.447 56.3766 144.379 55.0277 145.78L53.6943 144.635C55.0277 143.317 56.7464 141.437 58.8402 138.989C62.3402 134.864 65.2777 131.275 67.6527 128.218L111.819 142.447L89.861 102.51L93.9235 97.7388C97.7985 93.1867 100.715 89.6242 102.674 87.0513L104.007 88.1971Z" fill="#A1B2C1"/>
<path d="M154.572 110.758C156.348 109.315 158.14 108.633 159.947 108.716C161.765 108.799 163.343 109.664 164.676 111.299C166.01 112.94 166.52 114.654 166.218 116.445C165.926 118.226 164.89 119.836 163.114 121.279C161.348 122.726 159.562 123.414 157.76 123.341C155.952 123.258 154.385 122.398 153.051 120.758C151.718 119.122 151.197 117.404 151.489 115.612C151.78 113.82 152.812 112.206 154.572 110.758Z" fill="#A1B2C1"/>
<path d="M159.832 44.5437C162.447 42.9499 164.681 41.9291 166.541 41.4812C168.39 41.0385 170.411 40.8093 172.603 40.7937C173.322 40.752 173.958 40.7051 174.499 40.6478C175.051 40.5801 175.484 40.4551 175.791 40.2728C176.234 39.9968 176.421 39.5176 176.353 38.8353C176.28 38.1582 175.968 37.1999 175.416 35.9603L177.166 34.8978C178.942 38.4135 182.291 44.2051 187.208 52.2728L185.478 53.3353C183.629 50.752 181.442 48.5437 178.916 46.7103C176.4 44.877 173.739 43.7728 170.937 43.3978C168.119 43.0124 165.458 43.5749 162.957 45.0853C160.499 46.5853 158.931 48.4968 158.249 50.8145C157.556 53.1218 157.926 55.4499 159.353 57.7937C160.426 59.5437 161.728 60.8457 163.27 61.6895C164.812 62.5385 166.593 63.0957 168.603 63.3562C170.619 63.6062 173.593 63.8041 177.541 63.9395L180.958 64.127C185.093 64.2676 188.458 64.5541 191.041 64.9812C193.624 65.3978 196.041 66.2468 198.291 67.5228C200.551 68.7885 202.463 70.6999 204.02 73.252C205.978 76.4603 206.791 79.6635 206.458 82.8562C206.135 86.0541 204.895 89.0593 202.728 91.877C200.572 94.6999 197.77 97.1635 194.312 99.2728C191.52 100.971 189.041 102.137 186.874 102.773C184.708 103.413 182.588 103.783 180.52 103.877C178.989 103.851 177.926 104.018 177.333 104.377C176.874 104.658 176.676 105.137 176.749 105.814C176.817 106.481 177.135 107.439 177.708 108.689L175.958 109.752C174.234 106.46 170.218 99.627 163.895 89.252L165.603 88.2103C169.385 93.601 173.4 97.377 177.666 99.5437C181.942 101.71 186.312 101.439 190.77 98.7312C193.489 97.0801 195.28 94.9968 196.145 92.4812C197.02 89.9551 196.629 87.3457 194.978 84.6478C193.27 81.8301 190.9 79.9707 187.874 79.0645C184.843 78.1478 180.614 77.6374 175.187 77.5228C170.994 77.3978 167.556 77.1635 164.874 76.8145C162.181 76.4551 159.661 75.6426 157.312 74.377C154.952 73.101 152.973 71.1582 151.374 68.5437C149.541 65.5332 148.76 62.5228 149.02 59.5228C149.27 56.5124 150.369 53.726 152.312 51.1687C154.26 48.6166 156.765 46.4082 159.832 44.5437Z" fill="#A1B2C1"/>
<path d="M222.268 69.4931C224.377 68.5765 226.294 68.4046 228.018 68.9723C229.737 69.5452 231.023 70.7952 231.872 72.7223C232.705 74.6702 232.747 76.4619 231.997 78.0973C231.247 79.7379 229.815 81.014 227.705 81.9306C225.622 82.8473 223.711 83.0296 221.976 82.4723C220.252 81.9202 218.976 80.6702 218.143 78.7223C217.294 76.7952 217.247 75.0035 217.997 73.3473C218.758 71.6962 220.185 70.4098 222.268 69.4931Z" fill="#A1B2C1"/>
<path d="M311.188 50.2917C312.297 52.0729 313.422 53.3021 314.562 53.9792C315.714 54.6458 316.755 54.9167 317.688 54.7917L318 56.5417C314.51 57.0156 310.109 57.7448 304.792 58.7292C298.917 59.8125 294.547 60.7083 291.688 61.4167L291.375 59.6667C293.542 59.1667 295.047 58.6198 295.896 58.0208C296.74 57.4271 297.062 56.5729 296.854 55.4583C296.656 54.4167 296.052 53.099 295.042 51.5L287.229 38.2708L268.354 41.7708L267.208 48.1458C266.359 52.5938 266.146 55.9375 266.562 58.1875C266.964 60.3438 267.885 61.7188 269.333 62.3125C270.792 62.8958 272.802 63.0104 275.375 62.6458L275.688 64.3958C271.729 64.9375 268.135 65.5104 264.917 66.1042C262.25 66.6042 260.068 67.099 258.375 67.5833L258.062 65.8333C260.797 64.8073 262.714 61.3281 263.812 55.3958L274.167 1.10417C274.818 1.03646 275.833 0.875 277.208 0.625C278.609 0.375 279.589 0.166667 280.146 0L311.188 50.2917ZM286.271 36.625L273.396 14.8333L268.729 39.875L286.271 36.625Z" fill="#A1B2C1"/>
<path d="M341.386 10.5803C343.553 10.5699 345.6 10.7886 347.532 11.247C349.475 11.7053 351.095 12.3407 352.386 13.1428C353.928 14.0907 355.121 15.2782 355.97 16.7053C356.829 18.1376 357.261 19.7001 357.261 21.3928C357.272 23.4501 356.641 25.1428 355.365 26.4761C354.084 27.7991 352.417 28.4657 350.365 28.4761C348.308 28.4761 346.657 27.8928 345.407 26.7261C344.167 25.5595 343.542 23.9866 343.532 21.997C343.532 20.2366 344.084 18.7053 345.199 17.4136C346.308 16.1116 347.683 15.2209 349.324 14.747C348.834 14.1116 348.105 13.6011 347.136 13.2261C346.178 12.8511 345.141 12.6636 344.032 12.6636C340.501 12.6793 337.766 14.6116 335.824 18.4553C333.876 22.3043 332.917 27.3407 332.949 33.5595C332.975 39.8407 334.105 44.3511 336.345 47.1011C338.595 49.8511 341.391 51.2209 344.74 51.2053C346.74 51.1949 348.746 50.6584 350.761 49.6011C352.772 48.5334 354.595 46.6741 356.22 44.0178L357.72 44.5595C356.563 48.3668 354.522 51.6428 351.595 54.3928C348.678 57.1324 344.907 58.5074 340.282 58.5386C334.225 58.5647 329.282 56.5959 325.449 52.622C321.626 48.6532 319.699 42.7261 319.657 34.8511C319.626 29.7001 320.542 25.3043 322.407 21.6636C324.282 18.0126 326.855 15.2574 330.136 13.3928C333.412 11.5334 337.162 10.5959 341.386 10.5803Z" fill="#A1B2C1"/>
<path d="M373.537 59.8537C369.829 59.2704 367.209 57.8797 365.683 55.687C364.167 53.4943 363.652 50.8329 364.141 47.7079C364.542 45.0829 365.548 43.0204 367.162 41.5204C368.787 40.0204 370.641 38.9579 372.725 38.3329C374.818 37.6974 377.454 37.0933 380.62 36.5204C383.98 35.911 386.464 35.2704 388.079 34.6037C389.704 33.937 390.641 32.8224 390.891 31.2495L391.933 24.4579C392.308 22.0308 392.027 20.0412 391.1 18.4995C390.183 16.9579 388.537 16.0099 386.162 15.6454C383.37 15.2183 381.147 15.5776 379.495 16.7287C381.022 17.5933 382.147 18.6766 382.87 19.9787C383.605 21.2704 383.85 22.6974 383.6 24.2495C383.292 26.2235 382.381 27.687 380.87 28.6454C379.355 29.5933 377.647 29.9162 375.745 29.6245C373.704 29.3068 372.225 28.4266 371.308 26.9787C370.402 25.5204 370.1 23.8329 370.391 21.9162C370.641 20.3068 371.245 18.9995 372.204 17.9995C373.162 16.9891 374.537 16.1141 376.329 15.3745C378.037 14.6818 380.068 14.2495 382.433 14.0829C384.808 13.9162 387.355 14.0516 390.079 14.4787C392.923 14.911 395.339 15.5776 397.329 16.4787C399.329 17.3693 400.923 18.6193 402.12 20.2287C403.204 21.7027 403.813 23.4058 403.954 25.3329C404.089 27.2652 403.917 29.8224 403.433 32.9995L399.787 56.6662C399.563 58.0516 399.537 59.0516 399.704 59.6662C399.881 60.2912 400.35 60.6558 401.1 60.7704C401.959 60.9058 403.079 60.5724 404.454 59.7704L405.1 61.3954C402.152 63.1558 398.798 63.7495 395.037 63.1662C391.839 62.6662 389.704 61.6766 388.62 60.2079C387.548 58.7339 387.152 56.9162 387.433 54.7495C383.792 59.0099 379.162 60.7131 373.537 59.8537ZM381.1 55.2912C383.376 55.6402 385.537 54.7599 387.579 52.6454L390.329 34.812C389.454 35.8537 387.777 36.9058 385.308 37.9579C382.818 39.0568 380.881 40.2443 379.495 41.5204C378.12 42.786 377.214 44.7808 376.787 47.4995C376.423 49.8745 376.647 51.7079 377.454 52.9995C378.272 54.2808 379.485 55.0412 381.1 55.2912Z" fill="#A1B2C1"/>
<path d="M450.726 68.9468C449.851 71.5145 449.606 73.5145 449.997 74.9468C450.382 76.3739 451.585 77.4312 453.601 78.1135L452.997 79.8635C451.314 79.1135 449.611 78.4468 447.892 77.8635C442.944 76.1968 438.767 75.2177 435.351 74.926L437.767 67.7593C434.168 72.1187 429.694 73.3947 424.351 71.5927C419.127 69.8427 415.611 66.5406 413.809 61.6968C412.017 56.8374 412.444 50.5822 415.101 42.926C416.752 38.0249 418.934 34.1656 421.642 31.3427C424.351 28.5093 427.398 26.7281 430.788 25.9885C434.174 25.2541 437.674 25.4885 441.288 26.6968C445.34 28.0718 448.069 30.1656 449.476 32.9677L454.267 18.801C455.127 16.2333 455.351 14.2333 454.934 12.801C454.517 11.3583 453.335 10.3114 451.392 9.65515L451.976 7.90515C453.71 8.67078 455.403 9.33224 457.059 9.88432C461.903 11.5249 466.101 12.5041 469.642 12.8218L450.726 68.9468ZM428.997 69.1552C430.83 69.7645 432.684 69.6447 434.559 68.801C436.434 67.952 437.892 66.4312 438.934 64.2385L448.788 35.0718C448.023 32.6968 446.309 31.0614 443.642 30.1552C440.694 29.1708 437.84 30.1031 435.08 32.9468C432.314 35.7958 429.83 40.5927 427.622 47.3427C425.273 54.1083 424.273 59.2177 424.622 62.676C424.981 66.1343 426.439 68.2906 428.997 69.1552Z" fill="#A1B2C1"/>
<path d="M481.259 88.5769C485.478 90.8529 489.999 90.6238 494.821 87.8894L495.946 89.0977C493.113 91.9154 489.728 93.7748 485.801 94.6811C481.884 95.5977 477.931 94.9779 473.946 92.8269C468.473 89.8686 465.061 85.7696 463.717 80.5352C462.368 75.3165 463.535 69.2956 467.217 62.4727C470.978 55.5144 475.582 51.129 481.03 49.3061C486.488 47.4727 492.082 48.1081 497.821 51.2019C507.53 56.4519 509.29 64.8061 503.113 76.2644L481.363 64.5144C480.874 65.254 480.186 66.4467 479.301 68.0977C477.452 71.504 476.394 74.6081 476.134 77.4102C475.868 80.2019 476.217 82.5196 477.176 84.3686C478.134 86.2123 479.493 87.6186 481.259 88.5769ZM496.488 52.5769C494.624 51.5769 492.467 51.8998 490.009 53.5352C487.551 55.1758 484.874 58.3165 481.988 62.9519L494.134 69.5144C496.436 65.504 497.853 61.9206 498.384 58.7644C498.926 55.6133 498.29 53.5508 496.488 52.5769Z" fill="#A1B2C1"/>
<path d="M552.939 140.128C551.366 141.961 550.611 143.492 550.668 144.732C550.736 145.982 551.548 147.274 553.105 148.607L551.897 150.024C547.59 146.024 544.72 143.409 543.293 142.19C542.053 141.117 539.215 138.841 534.772 135.357L535.98 133.94C537.189 134.966 538.314 135.347 539.355 135.086C540.397 134.836 541.72 133.763 543.335 131.878L561.126 111.086C562.72 109.222 563.632 107.591 563.855 106.19C564.074 104.8 563.408 103.44 561.855 102.107C560.199 100.701 558.173 100.17 555.772 100.503C553.366 100.836 551.194 101.904 549.251 103.711L548.21 104.92L532.835 122.899C531.262 124.732 530.46 126.222 530.418 127.378C530.387 128.545 531.111 129.758 532.585 131.024L531.376 132.44C527.251 128.591 524.512 126.097 523.168 124.961C521.918 123.888 519.074 121.612 514.647 118.128L515.855 116.711C517.064 117.737 518.194 118.107 519.251 117.815C520.303 117.534 521.616 116.482 523.189 114.649L540.98 93.857C542.574 91.9976 543.522 90.3987 543.814 89.0653C544.116 87.732 543.553 86.456 542.126 85.232C540.345 83.706 538.178 83.1435 535.626 83.5445C533.085 83.9508 530.876 85.2476 529.001 87.4403L513.105 106.003C511.533 107.836 510.689 109.295 510.564 110.378C510.439 111.472 510.98 112.534 512.189 113.565L510.98 114.982C507.199 111.44 504.647 109.097 503.314 107.961C501.98 106.821 498.824 104.279 493.855 100.336L495.064 98.9195C496.673 100.295 498.085 100.904 499.293 100.753C500.512 100.597 501.908 99.607 503.48 97.7737L521.501 76.7112C523.251 74.6695 524.215 72.9143 524.397 71.4403C524.574 69.9716 523.861 68.5445 522.251 67.1695L523.439 65.7737C524.757 67.1226 526.085 68.3674 527.418 69.5028C531.376 72.9091 534.902 75.3778 538.001 76.9195L532.855 82.9403C538.355 80.482 543.574 81.3726 548.522 85.607C551.908 88.5133 553.616 91.482 553.647 94.5237C553.73 96.1383 553.137 97.9508 551.876 99.9612C555.095 98.5341 558.069 98.1226 560.793 98.732C563.527 99.3258 566.147 100.696 568.647 102.836C572.033 105.737 573.751 108.711 573.793 111.753C573.803 113.138 573.376 114.659 572.501 116.315C571.626 117.966 570.23 119.909 568.314 122.149L552.939 140.128Z" fill="#A1B2C1"/>
<path d="M609.295 153.815C611.055 156.149 612.482 157.899 613.565 159.065L612.17 160.107C611.154 159.341 609.899 158.92 608.399 158.836C606.899 158.753 604.92 159.091 602.461 159.857L557.67 174.024C554.529 174.909 552.091 175.138 550.357 174.711C548.164 174.222 546.039 172.617 543.982 169.899C542.498 167.94 541.644 165.815 541.42 163.524C541.185 161.242 541.977 159.409 543.795 158.024C545.253 156.925 546.805 156.565 548.44 156.94C550.076 157.315 551.534 158.341 552.815 160.024C554.008 161.607 554.586 163.17 554.545 164.711C554.503 166.263 553.779 167.576 552.378 168.649C551.388 169.383 550.258 169.758 548.982 169.774C547.706 169.784 546.43 169.388 545.149 168.586C545.357 168.946 545.748 169.492 546.315 170.232C548.513 173.133 551.966 173.862 556.69 172.42L560.92 171.003L583.482 130.524C584.492 128.565 584.992 127.039 584.982 125.94C584.966 124.847 584.675 123.93 584.107 123.19L585.565 122.086C587.633 125.378 589.925 128.69 592.44 132.024C594.524 134.774 597.117 137.92 600.232 141.461L598.774 142.565C597.649 141.065 596.701 140.034 595.94 139.461C595.19 138.893 594.362 138.951 593.461 139.628C592.961 140.003 592.425 140.664 591.857 141.607L577.67 165.836L594.774 160.461C597.534 159.555 599.696 158.513 601.253 157.336C604.654 154.763 605.211 151.617 602.92 147.899L604.315 146.857C605.867 149.149 607.529 151.466 609.295 153.815Z" fill="#A1B2C1"/>
<mask id="mask1_119_243" style="mask-type:luminance" maskUnits="userSpaceOnUse" x="298" y="109" width="85" height="104">
<path d="M298.354 109.709H382.193V212.933H298.354V109.709Z" fill="white"/>
</mask>
<g mask="url(#mask1_119_243)">
<path fill-rule="evenodd" clip-rule="evenodd" d="M341.011 109.709C338.552 109.704 336.084 113.568 333.464 121.318V120.256C332.672 131.485 332.282 141.553 332.177 150.516L318.839 161.522V160.584C318.839 159.183 317.271 158.053 315.318 158.053C313.365 158.053 311.797 159.183 311.797 160.584V167.334L300.667 176.511L299.026 183.683C297.23 190.449 301.099 187.496 301.516 187.178C315.443 176.683 325.693 170.704 332.631 171.147C333.068 179.433 333.756 189.725 334.469 194.803L322.323 205.016L322.131 210.157L335.969 203.376C336.454 205.563 336.865 206.86 337.089 207.292C340.433 213.647 339.87 213.141 342.521 207.334C342.724 206.891 343.131 205.693 343.641 203.73L357.131 210.334L356.938 205.188L345.401 195.496C346.292 190.501 347.219 180.167 347.922 171.865C354.974 171.235 365.151 176.996 378.599 186.735C381.948 189.162 382.167 187.027 382.193 184.928L380.302 176.693L369.568 167.834V160.501C369.568 159.147 368 158.053 366.047 158.053C364.094 158.053 362.526 159.147 362.526 160.501V162.027L349.068 150.923C349.177 142.152 349.026 132.303 348.48 121.318C345.917 113.589 343.469 109.714 341.011 109.709Z" fill="#920530"/>
</g>
</svg>
