<svg width="38" height="41" viewBox="0 0 38 41" fill="none" xmlns="http://www.w3.org/2000/svg">
<g id="plane">
<path id="Vector" fill-rule="evenodd" clip-rule="evenodd" d="M37.3375 29.1303C37.3375 29.1303 37.3922 29.3464 37.384 29.5724C37.3771 29.7947 37.306 30.2802 37.3074 30.1697C37.3074 30.0592 37.0884 29.9201 37.0884 29.9201L37.0569 30.1126L36.8859 30.1175L36.8818 29.8083L31.712 27.6514C31.712 27.6514 31.7079 27.3856 31.6832 27.3807C31.675 27.6452 31.6928 27.8227 31.6559 27.8451C31.6066 27.8277 25.9333 25.5106 25.8087 25.4472C25.754 25.4187 25.7855 25.1927 25.7855 25.1927L24.3227 24.9853L24.3144 25.1629C24.3144 25.1629 21.2342 24.7543 21.148 24.8027C21.0618 24.8524 21.2082 27.8563 21.0481 29.8915C20.8894 31.9256 20.6321 33.0196 20.5199 33.412C20.4145 33.7783 20.498 33.8602 20.6923 34.0155C20.8866 34.1719 24.7961 36.8256 25.1245 37.0541C25.4475 37.2776 25.4529 37.3794 25.4516 37.5148C25.4502 37.6911 25.4488 38.8584 25.4488 38.8584L19.9917 37.6241C19.9917 37.6241 19.9575 38.1158 19.8781 38.1878C19.7987 38.2586 19.6345 38.23 19.6345 38.23C19.6345 38.23 19.5169 39.2533 19.4566 39.3191C19.3951 39.3849 19.2911 39.4184 19.2911 39.4184C19.2911 39.4184 19.0407 40.4714 18.9284 40.4988V40.5C18.9271 40.5 18.9257 40.5 18.9257 40.5C18.9243 40.5 18.9243 40.5 18.923 40.5V40.4988C18.8121 40.4702 18.574 39.4147 18.574 39.4147C18.574 39.4147 18.4714 39.3799 18.4098 39.3141C18.3496 39.2471 18.247 38.2238 18.247 38.2238C18.247 38.2238 18.0814 38.2499 18.002 38.1779C17.924 38.1059 17.8967 37.6129 17.8967 37.6129L12.4231 38.7901C12.4231 38.7901 12.4368 37.6228 12.4382 37.4465C12.4395 37.3111 12.4464 37.2105 12.7707 36.9895C13.1018 36.7635 17.0442 34.1521 17.2412 33.9981C17.4369 33.8441 17.5217 33.7634 17.4218 33.3958C17.3151 33.0022 17.0715 31.9057 16.9374 29.8704C16.8047 27.8339 16.9881 24.8313 16.9032 24.7804C16.8184 24.7307 13.7313 25.107 13.7313 25.107L13.7272 24.9306L12.2603 25.1219C12.2603 25.1219 12.289 25.3491 12.2343 25.3764C12.1097 25.4385 6.40627 27.6961 6.35701 27.7122C6.32143 27.6899 6.34059 27.5135 6.33648 27.2478C6.31185 27.254 6.30364 27.5185 6.30364 27.5185L1.10648 29.6208L1.09827 29.9313L0.927219 29.9251L0.898483 29.7313C0.898483 29.7313 0.676803 29.8679 0.676803 29.9785C0.675435 30.089 0.61112 29.6034 0.607015 29.3812C0.60291 29.1539 0.659014 28.9391 0.659014 28.9391C0.659014 28.9391 0.481123 28.9875 0.501649 28.7777C0.513964 28.6435 0.976482 28.0338 0.976482 28.0338C0.976482 28.0338 1.00932 27.9419 1.00385 27.8774C0.998376 27.8016 1.09964 27.7532 1.15437 27.711C1.18448 27.6861 1.15164 27.5483 1.15164 27.5483C1.15164 27.5483 2.87855 26.2233 5.86712 24.1483C8.85296 22.0771 12.3848 19.5364 12.3848 19.5364C12.3848 19.5364 12.3862 19.3886 12.3547 19.1825C12.3232 18.9751 12.2999 18.8869 12.2999 18.8869C12.2999 18.8869 12.1207 18.8348 12.0728 18.7007C12.0372 18.6013 11.9483 17.8823 11.9688 17.2329C11.9893 16.5834 12.0317 16.2444 12.081 16.1426C12.1303 16.0396 12.2958 15.9936 12.5066 15.9675C12.7255 15.939 13.578 15.9613 13.7847 15.9886C13.979 16.0147 14.1008 16.042 14.1322 16.2929C14.1637 16.5437 14.1664 17.4067 14.1391 17.7606C14.1199 18.0127 14.046 18.2983 14.0871 18.3132C14.1267 18.3281 14.8397 17.7048 15.2324 17.4564C15.6238 17.2081 16.2957 16.6878 16.3778 16.5263C16.4599 16.3637 16.4681 16.3425 16.516 16.4903C16.5639 16.6381 16.5557 16.7846 16.4886 16.8877C16.4229 16.9907 16.3901 17.1236 16.4544 17.1832C16.479 17.2043 16.6747 17.0578 16.7253 16.9696C16.7746 16.8815 16.7267 16.7113 16.7595 16.6381C16.7924 16.5648 16.921 16.3512 16.9169 16.1749C16.8909 15.1194 16.8622 13.5411 16.8745 10.0902C16.8882 6.39718 16.9361 5.29324 17.4629 3.32255C17.9418 1.5344 18.2949 1.18173 18.4769 0.924686C18.6438 0.686268 19.0215 0.502483 19.1775 0.5C19.1789 0.5 19.1789 0.5 19.1802 0.5C19.1802 0.5 19.1816 0.5 19.183 0.5C19.339 0.503727 19.7139 0.691235 19.8781 0.930897C20.056 1.19043 20.4049 1.54681 20.862 3.34118C21.3642 5.31684 21.397 6.41953 21.3642 10.1138C21.3327 13.5647 21.2835 15.143 21.2438 16.1973C21.2369 16.3736 21.3642 16.5884 21.3957 16.6629C21.4271 16.7362 21.3779 16.9063 21.4258 16.9945C21.4737 17.0839 21.6693 17.2317 21.694 17.2105C21.7583 17.1509 21.7268 17.0181 21.6625 16.915C21.5982 16.8107 21.5913 16.6642 21.6406 16.5164C21.6899 16.3686 21.6981 16.391 21.7788 16.5536C21.8595 16.7163 22.5232 17.2441 22.9132 17.4962C23.3018 17.7495 24.0066 18.3803 24.0476 18.3654C24.0873 18.3505 24.0175 18.0636 24.0011 17.8116C23.9792 17.4577 23.9929 16.5946 24.0271 16.345C24.0613 16.0942 24.1844 16.0681 24.3788 16.0445C24.5854 16.0184 25.4379 16.0048 25.6582 16.0358C25.8662 16.0656 26.0318 16.1116 26.0797 16.2146C26.1276 16.3189 26.1659 16.658 26.1782 17.3074C26.1905 17.9556 26.092 18.6758 26.055 18.7739C26.0058 18.9068 25.8265 18.9577 25.8265 18.9577C25.8265 18.9577 25.8005 19.0459 25.7677 19.252C25.7335 19.4582 25.7321 19.6059 25.7321 19.6059C25.7321 19.6059 29.2325 22.1838 32.1909 24.2862C35.1549 26.3922 36.864 27.7346 36.864 27.7346C36.864 27.7346 36.8284 27.8712 36.8599 27.8972C36.9132 27.9395 37.0145 27.9891 37.0063 28.0649C37.0008 28.1295 37.0323 28.2213 37.0323 28.2213C37.0323 28.2213 37.488 28.836 37.4989 28.9701C37.5153 29.1812 37.3388 29.1303 37.3388 29.1303H37.3375ZM1.73594 27.3931L1.38974 27.6303L1.41984 27.665L1.76878 27.4254L1.73594 27.3931ZM2.42972 26.9175L1.77426 27.3658L1.8071 27.3993L2.45845 26.9523L2.42972 26.9175ZM3.12349 26.4406L2.46803 26.8902L2.49814 26.9249L3.14949 26.4779L3.12349 26.4406ZM3.99926 25.8396L3.16318 26.4133L3.18918 26.4518L4.028 25.8756L3.99926 25.8396ZM4.80662 25.287L4.03758 25.8135L4.06632 25.8496L4.83535 25.3218L4.80662 25.287ZM5.62218 24.727L4.84493 25.2597L4.87504 25.2957L5.65092 24.763L5.62218 24.727ZM6.46648 24.1483L5.66186 24.6997L5.68923 24.7357L6.49932 24.1806L6.46648 24.1483ZM7.31762 23.5635L6.50479 24.121L6.53764 24.1533L7.34499 23.6007L7.31762 23.5635ZM8.16192 22.9848L7.3573 23.5374L7.38467 23.5734L8.18655 23.0233L8.16192 22.9848ZM9.00075 22.4098L8.2016 22.9575L8.22623 22.996L9.02811 22.4459L9.00075 22.4098ZM9.80673 21.8573L9.03906 22.3825L9.06643 22.4185L9.83547 21.892L9.80673 21.8573ZM10.6113 21.3047L9.84505 21.8299L9.87378 21.866L10.636 21.3432L10.6113 21.3047ZM11.5596 20.654L10.6497 21.2773L10.6757 21.3158L11.5802 20.695L11.5596 20.654ZM11.8073 20.4839L11.5993 20.6267L11.6199 20.6676L11.8265 20.5261L11.8073 20.4839ZM12.5846 19.9511L11.8484 20.4565L11.8675 20.4988L12.6147 19.9859L12.5846 19.9511ZM25.5268 20.0182L25.4967 20.053L26.237 20.5733L26.2562 20.531L25.5268 20.0182ZM26.2972 20.5596L26.2767 20.6018L26.482 20.7459L26.5025 20.7049L26.2972 20.5596ZM26.5422 20.7322L26.5217 20.7732L27.418 21.4028L27.444 21.3655L26.5422 20.7322ZM27.4823 21.3928L27.4576 21.4313L28.213 21.9616L28.2417 21.9256L27.4823 21.3928ZM28.2801 21.9529L28.2513 21.9876L29.0121 22.5228L29.0409 22.4868L28.2801 21.9529ZM29.0792 22.5142L29.0518 22.5502L29.8455 23.109L29.8715 23.0705L29.0792 22.5142ZM29.9098 23.0978L29.8852 23.1363L30.6802 23.6951L30.709 23.6591L29.9098 23.0978ZM30.7473 23.6864L30.7199 23.7224L31.519 24.2837L31.5519 24.2514L30.7473 23.6864ZM31.5916 24.2787L31.5574 24.311L32.3606 24.8748L32.3893 24.84L31.5916 24.2787ZM32.4277 24.8661L32.3989 24.9021L33.168 25.4423L33.1981 25.4075L32.4277 24.8661ZM33.2364 25.4348L33.2063 25.4696L33.9685 26.0048L33.9972 25.97L33.2364 25.4348ZM34.0369 25.9973L34.0082 26.0321L34.8388 26.617L34.8661 26.5785L34.0369 25.9973ZM34.9044 26.6058L34.8784 26.6443L35.5243 27.0975L35.5544 27.0628L34.9044 26.6058ZM35.5928 27.0901L35.5626 27.1249L36.2085 27.5781L36.2414 27.5458L35.5928 27.0901ZM36.2797 27.5731L36.2468 27.6054L36.593 27.8488L36.6231 27.814L36.2797 27.5731Z" fill="#FFFFFF"/>
</g>
</svg>
